Coordinates
version=1
nRows=8
nColumns=46
inDegrees=yes

Units are S.I. units (second, meters, Newtons, ...)
Angles are in degrees.

endheader
time	pelvis_tilt	pelvis_list	pelvis_rotation	pelvis_tx	pelvis_ty	pelvis_tz	bb_angle	bb_tx	bb_ty	bb_tz	hip_flexion_r	hip_adduction_r	hip_rotation_r	knee_angle_r	knee_angle_r_beta	ankle_angle_r	subtalar_angle_r	mtp_angle_r	crank_angle_r	hip_flexion_l	hip_adduction_l	hip_rotation_l	knee_angle_l	knee_angle_l_beta	ankle_angle_l	subtalar_angle_l	mtp_angle_l	crank_angle_l	lumbar_extension	lumbar_bending	lumbar_rotation	arm_flex_r	arm_add_r	arm_rot_r	elbow_flex_r	pro_sup_r	wrist_flex_r	wrist_dev_r	arm_flex_l	arm_add_l	arm_rot_l	elbow_flex_l	pro_sup_l	wrist_flex_l	wrist_dev_l
      5.00500000	    -18.43054096	      3.52920416	     19.54898921	      0.36800665	      1.23465285	     -0.23756078	      0.00000000	      0.50000000	      0.00000000	      0.25000000	     29.85133528	     -8.58494570	      0.50892413	     59.27048600	      1.03446513	    -36.26359436	     -9.03492968	      0.00000000	      0.00000000	     50.46062057	      9.61903443	      5.68589473	     62.68095093	      1.09398897	     11.18936769	     -3.96588017	      0.00000000	      0.00000000	    -67.56792840	      5.50092998	     -5.75821867	     42.95150427	    -18.08737839	      5.87975364	     82.91761026	     51.20870598	      0.00000000	      0.00000000	     62.43181747	     -9.63033317	     34.93151065	     72.37538971	     56.59406061	      0.00000000	      0.00000000
      5.01000000	    -18.67924790	      2.67016258	     19.55170005	      0.36768652	      1.23291187	     -0.23755051	      0.00000000	      0.50000000	      0.00000000	      0.25000000	     31.23799862	     -8.01599003	     -0.05426093	     61.72705229	      1.07734030	    -34.63882511	     -9.48734895	      0.00000000	      0.00000000	     49.73856195	      8.88985938	      6.29174489	     60.37426911	      1.05372978	     10.52418090	     -3.22293249	      0.00000000	      0.00000000	    -67.21902663	      6.14566585	     -7.89669815	     45.28990042	    -16.34313412	      9.57666682	     80.30908749	     51.19466524	      0.00000000	      0.00000000	     60.00355379	    -12.21043547	     31.48497224	     76.62647568	     56.76536015	      0.00000000	      0.00000000
      5.01500000	    -18.96149115	      1.89189942	     19.51454089	      0.36724297	      1.23088343	     -0.23753785	      0.00000000	      0.50000000	      0.00000000	      0.25000000	     32.70905982	     -7.58558225	     -0.64328157	     64.29077929	      1.12208578	    -32.79145825	    -10.06206757	      0.00000000	      0.00000000	     49.10469211	      8.21724562	      6.83788846	     58.20512863	      1.01587114	      9.57903501	     -2.96852705	      0.00000000	      0.00000000	    -66.86631629	      6.39617366	     -7.86025004	     45.46042702	    -16.39666663	     10.20983289	     80.27689441	     51.26492665	      0.00000000	      0.00000000	     59.48567406	    -12.33495803	     30.90848171	     77.35718842	     56.79928542	      0.00000000	      0.00000000
      5.02000000	    -18.93357367	      1.10657288	     19.35038423	      0.36704295	      1.22938403	     -0.23711070	      0.00000000	      0.50000000	      0.00000000	      0.25000000	     33.82213810	     -6.96804311	     -1.24112526	     66.68291507	      1.16383642	    -31.05616343	    -10.97458784	      0.00000000	      0.00000000	     48.10037361	      7.30212128	      7.26324518	     55.96651279	      0.97679992	      8.50929693	     -2.31193120	      0.00000000	      0.00000000	    -66.79786813	      6.58974579	     -7.53094621	     45.71051093	    -16.37576116	     10.46858994	     80.24799923	     51.28724015	      0.00000000	      0.00000000	     59.35885964	    -12.49437196	     30.48337292	     77.74182048	     56.80364074	      0.00000000	      0.00000000
      5.02500000	    -19.25188117	      0.47186246	     19.03547197	      0.36676002	      1.22690941	     -0.23684737	      0.00000000	      0.50000000	      0.00000000	      0.25000000	     35.41763654	     -6.61971086	     -1.63218405	     69.35920597	      1.21054651	    -28.83475321	    -11.45915403	      0.00000000	      0.00000000	     47.43293339	      6.50450601	      7.34015418	     53.86510435	      0.94012342	      7.58449414	     -2.04686134	      0.00000000	      0.00000000	    -66.31691996	      6.95946286	     -9.76515830	     47.88262807	    -14.49076750	     14.18877451	     77.66281731	     51.28263055	      0.00000000	      0.00000000	     56.56867533	    -15.02338090	     26.66374201	     82.12821092	     56.95387224	      0.00000000	      0.00000000
      5.03000000	    -19.17388346	     -0.32750646	     18.72037652	      0.36665954	      1.22506734	     -0.23652825	      0.00000000	      0.50000000	      0.00000000	      0.25000000	     36.55348084	     -5.96655730	     -2.17301792	     71.78041573	      1.25280459	    -26.93971739	    -12.40071969	      0.00000000	      0.00000000	     46.37127141	      5.62361467	      7.80526794	     51.74962285	      0.90320131	      6.69079748	     -1.99995473	      0.00000000	      0.00000000	    -66.23208218	      6.90398648	     -9.29916735	     47.99269848	    -14.46145941	     14.34238799	     77.58519667	     51.28722402	      0.00000000	      0.00000000	     56.48040194	    -15.10336360	     26.59967704	     82.28882071	     56.96886936	      0.00000000	      0.00000000
      5.03500000	    -19.42829282	     -0.73258481	     18.14821252	      0.36683481	      1.22263441	     -0.23628418	      0.00000000	      0.50000000	      0.00000000	      0.25000000	     38.10676435	     -5.79196970	     -2.33514139	     74.53408070	      1.30086511	    -24.27393464	    -12.30028087	      0.00000000	      0.00000000	     45.41981555	      4.87951079	      7.60307582	     49.53589953	      0.86456454	      5.32568796	     -2.64093318	      0.00000000	      0.00000000	    -65.81198371	      6.59663154	     -9.31211922	     48.10315399	    -14.61772575	     15.15635151	     77.38527508	     51.35014988	      0.00000000	      0.00000000	     55.92565184	    -15.40466786	     26.24603837	     83.02534447	     57.03325353	      0.00000000	      0.00000000
      5.04000000	    -19.44355558	     -1.25499872	     17.72269588	      0.36714799	      1.22074919	     -0.23631340	      0.00000000	      0.50000000	      0.00000000	      0.25000000	     39.33693824	     -5.53665226	     -2.69759961	     77.06982708	      1.34512224	    -21.79012147	    -12.26732044	      0.00000000	      0.00000000	     43.88307967	      4.45119236	      8.52660290	     46.83080854	      0.81735180	      3.85020831	     -4.14273365	      0.00000000	      0.00000000	    -65.62055687	      6.64771281	     -9.29011942	     48.57814420	    -14.53431891	     16.23755644	     77.10852550	     51.42688069	      0.00000000	      0.00000000	     55.33850805	    -16.04517499	     25.70807278	     83.83527371	     57.08123642	      0.00000000	      0.00000000
